<svg xmlns="http://www.w3.org/2000/svg" version="1.1" viewBox="0 0 32 32">
    <path d="M1.882 16.941c0 4.152 3.221 7.529 7.177 7.529v1.882c-4.996 0-9.060-4.222-9.060-9.412s4.064-9.412 9.060-9.412h7.96l-3.098-3.098 1.331-1.331 5.372 5.37-5.37 5.372-1.333-1.333 3.1-3.098h-7.962c-3.957 0-7.177 3.377-7.177 7.529zM22.94 7.529v1.882c3.957 0 7.177 3.377 7.177 7.529s-3.221 7.529-7.177 7.529h-7.962l3.098-3.098-1.331-1.331-5.37 5.37 5.372 5.372 1.331-1.331-3.1-3.1h7.96c4.998 0 9.062-4.222 9.062-9.412s-4.064-9.412-9.060-9.412z"></path>
</svg>